<svg width="22" height="25" viewBox="0 0 22 25" fill="none" xmlns="http://www.w3.org/2000/svg">
<path d="M18.7778 11.3887H3.22222C1.99492 11.3887 1 12.3836 1 13.6109V21.3887C1 22.616 1.99492 23.6109 3.22222 23.6109H18.7778C20.0051 23.6109 21 22.616 21 21.3887V13.6109C21 12.3836 20.0051 11.3887 18.7778 11.3887Z" stroke="black" stroke-opacity="0.55" stroke-width="1.5" stroke-linecap="round" stroke-linejoin="round"/>
<path d="M5.44531 11.3887V6.94423C5.44531 5.4708 6.03063 4.05773 7.0725 3.01586C8.11437 1.97399 9.52744 1.38867 11.0009 1.38867C12.4743 1.38867 13.8874 1.97399 14.9292 3.01586C15.9711 4.05773 16.5564 5.4708 16.5564 6.94423V11.3887" stroke="black" stroke-opacity="0.55" stroke-width="1.5" stroke-linecap="round" stroke-linejoin="round"/>
</svg>
